<svg width="319" height="150" viewBox="0 0 319 150" fill="none" xmlns="http://www.w3.org/2000/svg"><path d="M279.28 106.656q.32.224 1.344.64 1.056.384 2.464.384 1.12 0 1.824-.384a2.38 2.38 0 0 0 1.088-1.152q.384-.8.512-2.048a32 32 0 0 0 .128-3.072V89.28h5.248v11.552q0 2.56-.288 4.672t-1.184 3.68q-.864 1.536-2.624 2.368-1.76.8-4.704.8-1.504 0-2.72-.352a7.7 7.7 0 0 1-2.24-1.056zm30.341-10.72q-.096-.16-.672-.48-.576-.352-1.44-.736a14 14 0 0 0-1.888-.672 7.5 7.5 0 0 0-2.048-.288q-1.344 0-2.08.48-.736.448-.736 1.408 0 .768.544 1.216.576.448 1.632.8 1.056.32 2.592.768 2.175.576 3.776 1.408 1.6.8 2.432 2.08.864 1.28.864 3.392 0 1.92-.705 3.264a6 6 0 0 1-1.92 2.144q-1.183.8-2.719 1.184-1.536.352-3.168.352-1.665 0-3.424-.32a21.4 21.4 0 0 1-3.328-.96 16 16 0 0 1-2.944-1.536l2.304-4.576q.127.16.832.608.704.416 1.728.896 1.055.448 2.336.8a9.7 9.7 0 0 0 2.592.352q1.407 0 2.08-.448.704-.449.704-1.248 0-.864-.736-1.344-.705-.48-1.952-.864-1.217-.384-2.816-.864-2.08-.64-3.456-1.44-1.344-.8-2.016-1.952-.64-1.152-.64-2.88 0-2.4 1.12-4.032 1.152-1.664 3.072-2.496 1.92-.864 4.192-.864 1.599 0 3.072.384a17 17 0 0 1 2.784.96 27 27 0 0 1 2.336 1.152z" fill="#ffffff"/><path d="M38.144 120.64q-10.368 0-16.384-3.968-6.016-4.096-8.576-10.752t-2.56-14.72q0-4.095.512-8.192.511-4.224 1.408-8.448l9.6-45.44h2.56l-9.6 45.44a91 91 0 0 0-1.408 8.192 63 63 0 0 0-.512 8.064q0 7.553 2.176 13.824 2.304 6.144 7.808 9.856 5.504 3.584 14.976 3.584 9.728 0 17.024-3.712 7.296-3.84 12.288-10.112a58.3 58.3 0 0 0 8.32-14.08q3.2-7.807 4.864-15.616l9.6-45.44h2.56l-9.6 45.44q-1.92 9.216-5.504 17.536-3.585 8.32-9.088 14.72-5.376 6.4-12.928 10.112t-17.536 3.712m85.588 0q-10.752 0-18.048-3.328-7.168-3.456-13.312-10.752l2.048-1.664a51.6 51.6 0 0 0 5.632 5.76 38.3 38.3 0 0 0 6.656 4.224q3.584 1.664 7.808 2.56 4.352.896 9.728.896 9.6 0 16.768-2.816t11.136-8.192 3.968-12.8q0-6.015-2.688-9.344t-8.192-5.376q-5.376-2.047-13.696-4.096-8.192-2.047-13.952-3.84-5.632-1.92-8.576-5.248-2.944-3.456-2.944-10.112 0-6.272 2.432-11.392 2.56-5.12 7.168-8.832t11.008-5.76 14.208-2.048q5.76 0 10.24 1.152 4.608 1.152 8.064 3.584 3.584 2.432 6.272 6.144l-2.048 1.792q-2.048-2.816-4.352-4.736a17.8 17.8 0 0 0-5.12-3.2q-2.688-1.28-5.888-1.792-3.072-.512-6.912-.512-10.496 0-17.792 3.456-7.168 3.456-10.88 9.216t-3.712 12.672q0 5.504 2.432 8.448 2.56 2.944 7.68 4.736t13.184 3.84q9.088 2.304 14.976 4.608 6.017 2.175 8.832 5.888 2.944 3.712 2.944 10.496 0 6.656-2.688 11.648-2.56 4.992-7.296 8.32-4.736 3.2-11.136 4.864-6.4 1.536-13.952 1.536m93.736-91.52h2.304L237.948 120h-2.816l-6.528-32.512h-44.928L163.324 120h-2.816zm10.624 55.808-10.24-52.096-32.64 52.096zm43.835-55.808h2.56l-18.816 88.32h54.144l-.512 2.56h-56.704z" fill="#ffffff"/></svg>